<svg width="20" height="20" viewBox="0 0 20 20" fill="none" xmlns="http://www.w3.org/2000/svg">
<g clip-path="url(#clip0_1172_344903)">
<path d="M16.9732 6.23438L12.0627 11.1449C11.5151 11.691 10.7733 11.9977 10 11.9977C9.22665 11.9977 8.48487 11.691 7.93733 11.1449L3.02683 6.23438C3.01867 6.32654 3 6.40996 3 6.50154V13.5015C3.00093 14.2748 3.30851 15.0161 3.85529 15.5629C4.40208 16.1097 5.1434 16.4173 5.91667 16.4182H14.0833C14.8566 16.4173 15.5979 16.1097 16.1447 15.5629C16.6915 15.0161 16.9991 14.2748 17 13.5015V6.50154C17 6.40996 16.9813 6.32654 16.9732 6.23438Z" fill="#0D2A76"/>
<path d="M11.2374 10.3211L16.5656 4.99235C16.3075 4.56437 15.9434 4.21013 15.5086 3.96378C15.0737 3.71743 14.5827 3.5873 14.0829 3.58594H5.91626C5.41647 3.5873 4.92547 3.71743 4.49061 3.96378C4.05575 4.21013 3.69171 4.56437 3.43359 4.99235L8.76176 10.3211C9.09051 10.6485 9.5356 10.8324 9.9996 10.8324C10.4636 10.8324 10.9087 10.6485 11.2374 10.3211Z" fill="#0D2A76"/>
</g>
<defs>
<clipPath id="clip0_1172_344903">
<rect width="14" height="14" fill="white" transform="translate(3 3)"/>
</clipPath>
</defs>
</svg>
