<svg width="40" height="40" viewBox="0 0 40 40" fill="none" xmlns="http://www.w3.org/2000/svg">
<path d="M33.3334 5H11.6667C9.82837 5 8.33337 6.495 8.33337 8.33333V11.6667H6.66671C4.82837 11.6667 3.33337 13.1617 3.33337 15V31.6667C3.33337 33.505 4.82837 35 6.66671 35H16.6667C18.505 35 20 33.505 20 31.6667H33.3334C35.1717 31.6667 36.6667 30.1717 36.6667 28.3333V8.33333C36.6667 6.495 35.1717 5 33.3334 5ZM16.6617 31.6667H6.66671V15H16.6667L16.6617 31.6667ZM33.3284 28.3333H20V15C20 13.1617 18.505 11.6667 16.6667 11.6667H11.6667V8.33333H33.3334L33.3284 28.3333Z" fill="#545454"/>
</svg>
