<svg width="14" height="14" viewBox="0 0 14 14" fill="none" xmlns="http://www.w3.org/2000/svg">
<g clip-path="url(#clip0_1172_339025)">
<path d="M8.75065 0H5.25065C4.47739 0.00092625 3.73606 0.308514 3.18928 0.855295C2.6425 1.40208 2.33491 2.1434 2.33398 2.91667V9.33333H11.6673V2.91667C11.6664 2.1434 11.3588 1.40208 10.812 0.855295C10.2652 0.308514 9.52391 0.00092625 8.75065 0Z" fill="#0D2A76"/>
<path d="M2.33398 11.0833C2.33491 11.8566 2.6425 12.5979 3.18928 13.1447C3.73606 13.6915 4.47739 13.9991 5.25065 14H8.75065C9.52391 13.9991 10.2652 13.6915 10.812 13.1447C11.3588 12.5979 11.6664 11.8566 11.6673 11.0833V10.5H2.33398V11.0833ZM7.00065 11.6667C7.11602 11.6667 7.22881 11.7009 7.32473 11.765C7.42066 11.8291 7.49543 11.9202 7.53958 12.0268C7.58373 12.1334 7.59528 12.2506 7.57278 12.3638C7.55027 12.477 7.49471 12.5809 7.41313 12.6625C7.33155 12.7441 7.22761 12.7996 7.11445 12.8221C7.0013 12.8446 6.88401 12.8331 6.77742 12.7889C6.67083 12.7448 6.57972 12.67 6.51563 12.5741C6.45153 12.4782 6.41732 12.3654 6.41732 12.25C6.41732 12.0953 6.47878 11.9469 6.58817 11.8375C6.69757 11.7281 6.84594 11.6667 7.00065 11.6667Z" fill="#0D2A76"/>
</g>
<defs>
<clipPath id="clip0_1172_339025">
<rect width="14" height="14" fill="white"/>
</clipPath>
</defs>
</svg>
