<svg width="34" height="34" viewBox="0 0 34 34" fill="none" xmlns="http://www.w3.org/2000/svg">
<path d="M30.3333 15.332V5.33203C30.3333 3.4937 28.8383 1.9987 27 1.9987H22C22 1.55667 21.8244 1.13275 21.5118 0.820187C21.1993 0.507626 20.7753 0.332031 20.3333 0.332031H10.3333C9.89129 0.332031 9.46736 0.507626 9.1548 0.820187C8.84224 1.13275 8.66665 1.55667 8.66665 1.9987H3.66665C1.82831 1.9987 0.333313 3.4937 0.333313 5.33203V26.9987C0.333313 28.837 1.82831 30.332 3.66665 30.332H15.3333C15.3333 32.1704 16.8283 33.6654 18.6666 33.6654H30.3333C32.1716 33.6654 33.6666 32.1704 33.6666 30.332V18.6654C33.6666 16.827 32.1716 15.332 30.3333 15.332ZM15.3333 18.6654V26.9987H3.66665V5.33203H8.66665V8.66536H22V5.33203H27V15.332H18.6666C16.8283 15.332 15.3333 16.827 15.3333 18.6654ZM18.6666 30.332V18.6654H30.3333L30.335 30.332H18.6666Z" fill="#545454"/>
</svg>
