<svg width="18" height="14" viewBox="0 0 18 14" fill="none" xmlns="http://www.w3.org/2000/svg">
<path d="M15.666 0.332031H3.99935C3.08018 0.332031 2.33268 1.07953 2.33268 1.9987V6.16536H3.99935V3.66536L9.33268 7.66536C9.47698 7.77342 9.65241 7.83182 9.83268 7.83182C10.013 7.83182 10.1884 7.77342 10.3327 7.66536L15.666 3.66536V11.1654H8.99935V12.832H15.666C16.5852 12.832 17.3327 12.0845 17.3327 11.1654V1.9987C17.3327 1.07953 16.5852 0.332031 15.666 0.332031ZM9.83268 5.95703L4.55435 1.9987H15.111L9.83268 5.95703Z" fill="#0D2A76"/>
<path d="M0.666016 6.9987H6.49935V8.66536H0.666016V6.9987ZM2.33268 9.4987H7.33268V11.1654H2.33268V9.4987ZM4.83268 11.9987H8.16602V13.6654H4.83268V11.9987Z" fill="#0D2A76"/>
</svg>
