<svg width="24" height="24" viewBox="0 0 24 24" fill="none" xmlns="http://www.w3.org/2000/svg">
<path d="M12.14 2C10.1622 2 8.22879 2.58649 6.58429 3.6853C4.9398 4.78412 3.65808 6.3459 2.9012 8.17317C2.14432 10.0004 1.94629 12.0111 2.33214 13.9509C2.718 15.8907 3.6704 17.6725 5.06893 19.0711C6.46745 20.4696 8.24928 21.422 10.1891 21.8079C12.1289 22.1937 14.1396 21.9957 15.9668 21.2388C17.7941 20.4819 19.3559 19.2002 20.4547 17.5557C21.5535 15.9112 22.14 13.9778 22.14 12C22.14 9.34784 21.0864 6.8043 19.2111 4.92893C17.3357 3.05357 14.7922 2 12.14 2ZM12.14 20C10.5577 20 9.01103 19.5308 7.69543 18.6518C6.37984 17.7727 5.35446 16.5233 4.74896 15.0615C4.14346 13.5997 3.98503 11.9911 4.29371 10.4393C4.6024 8.88743 5.36432 7.46197 6.48314 6.34315C7.60196 5.22433 9.02743 4.4624 10.5793 4.15372C12.1311 3.84504 13.7397 4.00346 15.2015 4.60896C16.6633 5.21447 17.9127 6.23984 18.7918 7.55544C19.6708 8.87103 20.14 10.4177 20.14 12C20.14 14.1217 19.2971 16.1566 17.7969 17.6569C16.2966 19.1571 14.2617 20 12.14 20Z" fill="#151515"/>
<path d="M16.14 10C16.14 9.20435 15.8239 8.44129 15.2613 7.87868C14.6987 7.31607 13.9356 7 13.14 7H8.14V17H10.14V13H11.6L14.27 17H16.67L13.92 12.88C14.5543 12.7092 15.115 12.335 15.5161 11.8147C15.9171 11.2944 16.1363 10.6569 16.14 10ZM13.14 11H10.14V9H13.14C13.4052 9 13.6596 9.10536 13.8471 9.29289C14.0346 9.48043 14.14 9.73478 14.14 10C14.14 10.2652 14.0346 10.5196 13.8471 10.7071C13.6596 10.8946 13.4052 11 13.14 11Z" fill="#151515"/>
</svg>
