<svg width="17" height="16" viewBox="0 0 17 16" fill="none" xmlns="http://www.w3.org/2000/svg">
<path d="M14.5002 7.33333H12.5002V2.66667C12.5002 2.48986 12.4299 2.32029 12.3049 2.19526C12.1799 2.07024 12.0103 2 11.8335 2H2.50016C2.32335 2 2.15378 2.07024 2.02876 2.19526C1.90373 2.32029 1.8335 2.48986 1.8335 2.66667V12C1.8335 13.1027 2.73083 14 3.8335 14H13.1668C14.2695 14 15.1668 13.1027 15.1668 12V8C15.1668 7.82319 15.0966 7.65362 14.9716 7.5286C14.8465 7.40357 14.677 7.33333 14.5002 7.33333ZM3.8335 12.6667C3.65669 12.6667 3.48712 12.5964 3.36209 12.4714C3.23707 12.3464 3.16683 12.1768 3.16683 12V3.33333H11.1668V12C11.1668 12.234 11.2075 12.4587 11.2808 12.6667H3.8335ZM13.8335 12C13.8335 12.1768 13.7633 12.3464 13.6382 12.4714C13.5132 12.5964 13.3436 12.6667 13.1668 12.6667C12.99 12.6667 12.8204 12.5964 12.6954 12.4714C12.5704 12.3464 12.5002 12.1768 12.5002 12V8.66667H13.8335V12Z" fill="white"/>
<path d="M4.50016 4.66667H9.8335V6H4.50016V4.66667ZM4.50016 7.33333H9.8335V8.66667H4.50016V7.33333ZM7.8335 10H9.8335V11.3333H7.8335V10Z" fill="white"/>
</svg>
