<svg width="40" height="40" viewBox="0 0 40 40" fill="none" xmlns="http://www.w3.org/2000/svg">
<path d="M27.6734 18.4146C28.6885 16.6847 29.1268 14.6768 28.9251 12.6812C28.6267 9.70792 26.9667 7.07958 24.2534 5.28125L22.4117 8.05792C24.2767 9.29458 25.4117 11.0563 25.6084 13.0146C25.6991 13.9247 25.5858 14.8437 25.2767 15.7046C24.9676 16.5654 24.4706 17.3466 23.8217 17.9912L21.8351 19.9779L24.5317 20.7696C31.5851 22.8362 31.6667 29.9296 31.6667 30.0012H35.0001C35.0001 27.0196 33.4067 21.1929 27.6734 18.4146Z" fill="#545454"/>
<path d="M15.8334 20.0013C19.51 20.0013 22.5 17.0113 22.5 13.3346C22.5 9.65797 19.51 6.66797 15.8334 6.66797C12.1567 6.66797 9.16671 9.65797 9.16671 13.3346C9.16671 17.0113 12.1567 20.0013 15.8334 20.0013ZM15.8334 10.0013C17.6717 10.0013 19.1667 11.4963 19.1667 13.3346C19.1667 15.173 17.6717 16.668 15.8334 16.668C13.995 16.668 12.5 15.173 12.5 13.3346C12.5 11.4963 13.995 10.0013 15.8334 10.0013ZM18.3334 21.668H13.3334C7.81837 21.668 3.33337 26.153 3.33337 31.668V33.3346H6.66671V31.668C6.66671 27.9913 9.65671 25.0013 13.3334 25.0013H18.3334C22.01 25.0013 25 27.9913 25 31.668V33.3346H28.3334V31.668C28.3334 26.153 23.8484 21.668 18.3334 21.668Z" fill="#545454"/>
</svg>
