<svg width="18" height="18" viewBox="0 0 18 18" fill="none" xmlns="http://www.w3.org/2000/svg">
<path d="M6.5624 0.250035C5.36379 0.245956 4.19032 0.593651 3.1874 1.25004L7.1874 5.25004C7.32062 5.3637 7.42974 5.50287 7.50835 5.65935C7.58695 5.81583 7.63345 5.98646 7.6451 6.16119C7.65674 6.33592 7.63331 6.51121 7.57617 6.67674C7.51904 6.84227 7.42935 6.9947 7.3124 7.12504C7.18206 7.24198 7.02964 7.33167 6.86411 7.38881C6.69858 7.44594 6.52328 7.46938 6.34856 7.45773C6.17383 7.44608 6.0032 7.39958 5.84672 7.32098C5.69023 7.24238 5.55106 7.13325 5.4374 7.00004L1.3124 3.00004C0.599211 4.04949 0.228084 5.29386 0.249903 6.56254C0.256486 8.23469 0.923665 9.83647 2.10606 11.0189C3.28846 12.2013 4.89025 12.8685 6.5624 12.875C7.10963 12.878 7.65523 12.8151 8.1874 12.6875L12.3749 16.875C12.9634 17.4635 13.7615 17.7941 14.5937 17.7941C15.4258 17.7941 16.224 17.4635 16.8124 16.875C17.4009 16.2866 17.7314 15.4885 17.7314 14.6563C17.7314 13.8241 17.4009 13.026 16.8124 12.4375L12.6249 8.25004C12.7524 7.71787 12.8154 7.17227 12.8124 6.62504C12.829 5.79382 12.6797 4.96763 12.373 4.19486C12.0664 3.42209 11.6086 2.71826 11.0266 2.12459C10.4446 1.53092 9.74995 1.05934 8.9834 0.737457C8.21685 0.415577 7.39379 0.249869 6.5624 0.250035ZM11.5624 6.56254C11.5615 7.00664 11.4984 7.44844 11.3749 7.87504L11.1874 8.56254L11.6874 9.06254L15.8749 13.25C16.0532 13.4189 16.1951 13.6224 16.2919 13.8481C16.3886 14.0738 16.4381 14.317 16.4374 14.5625C16.4444 14.809 16.3978 15.0541 16.3006 15.2807C16.2035 15.5073 16.0582 15.7101 15.8749 15.875C15.7056 16.0528 15.502 16.1943 15.2764 16.291C15.0508 16.3877 14.8079 16.4375 14.5624 16.4375C14.3169 16.4375 14.074 16.3877 13.8484 16.291C13.6228 16.1943 13.4192 16.0528 13.2499 15.875L9.0624 11.6875L8.5624 11.1875L7.8749 11.375C7.4483 11.4985 7.00651 11.5616 6.5624 11.5625C5.23432 11.5588 3.95862 11.0441 2.9999 10.125C2.51506 9.66882 2.13111 9.11615 1.87276 8.50258C1.61442 7.88901 1.48741 7.22816 1.4999 6.56254C1.50076 6.09789 1.56382 5.63545 1.6874 5.18754L4.4374 7.93754C4.66977 8.1904 4.95016 8.39448 5.26221 8.53788C5.57426 8.68127 5.91174 8.76112 6.25496 8.77275C6.59818 8.78438 6.94029 8.72758 7.26133 8.60564C7.58238 8.48371 7.87594 8.29909 8.1249 8.06254C8.36145 7.81357 8.54608 7.52001 8.66801 7.19897C8.78995 6.87792 8.84675 6.53582 8.83512 6.19259C8.82348 5.84937 8.74364 5.51189 8.60024 5.19984C8.45685 4.88779 8.25277 4.60741 7.9999 4.37504L5.2499 1.62504C5.65412 1.4972 6.07597 1.43392 6.4999 1.43754C7.82798 1.44122 9.10368 1.95598 10.0624 2.87504C11.022 3.86296 11.5599 5.18528 11.5624 6.56254Z" fill="black"/>
</svg>
